# xmcd
#
# Track frame offsets: 
#        150
#        13723
#        31962
#        44436
#        62141
#        76996
#        96359
#        109057
#        122266
#
# Disc length: 1973 seconds
#
# Revision: 0
# Processed by: cddbd v1.5.2PL0 Copyright (c) Steve Scherf et al.
# Submitted via: ExactAudioCopy v0.99pb5
#
DISCID=6b07b309
DTITLE=The Felice Brothers - Mix Tape
DYEAR=2009
DGENRE=Folk/Rock
TTITLE0=Forever Green
TTITLE1=Ahab
TTITLE2=White Limo
TTITLE3=Let me come Home
TTITLE4=The Captain's Wife
TTITLE5=Indian Massacre
TTITLE6=Old Song
TTITLE7=Marie
TTITLE8=Marlboro Man
EXTD=
EXTT0=
EXTT1=
EXTT2=
EXTT3=
EXTT4=
EXTT5=
EXTT6=
EXTT7=
EXTT8=
PLAYORDER=
